<svg width="95" height="33" viewBox="0 0 95 33" fill="none" xmlns="http://www.w3.org/2000/svg">
<path d="M0 0H85C90.5228 0 95 4.47715 95 10V33H10C4.47715 33 0 28.5228 0 23V0Z" fill="#DF0033"/>
<path d="M15.7192 23V9.7H18.1512L24.4022 19.067V9.7H26.8342V23H24.4022L18.1512 13.652V23H15.7192ZM39.2926 23.228C38.3173 23.228 37.4369 23.038 36.6516 22.658C35.8663 22.2653 35.2393 21.6763 34.7706 20.891C34.3146 20.1057 34.0866 19.1113 34.0866 17.908V9.7H36.5186V17.927C36.5186 18.9657 36.7656 19.7383 37.2596 20.245C37.7663 20.7517 38.4629 21.005 39.3496 21.005C40.2236 21.005 40.9139 20.7517 41.4206 20.245C41.9273 19.7383 42.1806 18.9657 42.1806 17.927V9.7H44.6126V17.908C44.6126 19.1113 44.3719 20.1057 43.8906 20.891C43.4093 21.6763 42.7633 22.2653 41.9526 22.658C41.1546 23.038 40.2679 23.228 39.2926 23.228ZM55.7022 23L50.8382 9.7H53.4412L57.2032 20.511L60.9842 9.7H63.5492L58.6852 23H55.7022ZM69.8804 23V9.7H78.5634V11.657H72.3124V15.305H77.9934V17.205H72.3124V21.043H78.5634V23H69.8804Z" fill="white"/>
<path d="M15.7192 23H15.2192V23.5H15.7192V23ZM15.7192 9.7V9.2H15.2192V9.7H15.7192ZM18.1512 9.7L18.5671 9.42245L18.4187 9.2H18.1512V9.7ZM24.4022 19.067L23.9864 19.3445L24.9022 20.717V19.067H24.4022ZM24.4022 9.7V9.2H23.9022V9.7H24.4022ZM26.8342 9.7H27.3342V9.2H26.8342V9.7ZM26.8342 23V23.5H27.3342V23H26.8342ZM24.4022 23L23.9866 23.2779L24.1351 23.5H24.4022V23ZM18.1512 13.652L18.5669 13.3741L17.6512 12.0048V13.652H18.1512ZM18.1512 23V23.5H18.6512V23H18.1512ZM16.2192 23V9.7H15.2192V23H16.2192ZM15.7192 10.2H18.1512V9.2H15.7192V10.2ZM17.7354 9.97754L23.9864 19.3445L24.8181 18.7895L18.5671 9.42245L17.7354 9.97754ZM24.9022 19.067V9.7H23.9022V19.067H24.9022ZM24.4022 10.2H26.8342V9.2H24.4022V10.2ZM26.3342 9.7V23H27.3342V9.7H26.3342ZM26.8342 22.5H24.4022V23.5H26.8342V22.5ZM24.8179 22.7221L18.5669 13.3741L17.7356 13.9299L23.9866 23.2779L24.8179 22.7221ZM17.6512 13.652V23H18.6512V13.652H17.6512ZM18.1512 22.5H15.7192V23.5H18.1512V22.5ZM36.6516 22.658L36.428 23.1053L36.4338 23.1081L36.6516 22.658ZM34.7706 20.891L34.3382 21.1421L34.3412 21.1472L34.7706 20.891ZM34.0866 9.7V9.2H33.5866V9.7H34.0866ZM36.5186 9.7H37.0186V9.2H36.5186V9.7ZM37.2596 20.245L36.9016 20.5941L36.9061 20.5986L37.2596 20.245ZM41.4206 20.245L41.0671 19.8914L41.4206 20.245ZM42.1806 9.7V9.2H41.6806V9.7H42.1806ZM44.6126 9.7H45.1126V9.2H44.6126V9.7ZM43.8906 20.891L43.4643 20.6297L43.8906 20.891ZM41.9526 22.658L42.1676 23.1094L42.1706 23.108L41.9526 22.658ZM39.2926 22.728C38.3837 22.728 37.5792 22.5514 36.8694 22.2079L36.4338 23.1081C37.2947 23.5246 38.2508 23.728 39.2926 23.728V22.728ZM36.8752 22.2108C36.179 21.8627 35.6218 21.3417 35.2 20.6348L34.3412 21.1472C34.8567 22.011 35.5536 22.668 36.428 23.1052L36.8752 22.2108ZM35.203 20.6399C34.8034 19.9518 34.5866 19.0509 34.5866 17.908H33.5866C33.5866 19.1717 33.8258 20.2596 34.3382 21.1421L35.203 20.6399ZM34.5866 17.908V9.7H33.5866V17.908H34.5866ZM34.0866 10.2H36.5186V9.2H34.0866V10.2ZM36.0186 9.7V17.927H37.0186V9.7H36.0186ZM36.0186 17.927C36.0186 19.0355 36.2816 19.9581 36.9016 20.594L37.6176 19.8959C37.2496 19.5185 37.0186 18.8958 37.0186 17.927H36.0186ZM36.9061 20.5986C37.5277 21.2202 38.3637 21.505 39.3496 21.505V20.505C38.5622 20.505 38.0048 20.2831 37.6132 19.8914L36.9061 20.5986ZM39.3496 21.505C40.3252 21.505 41.1539 21.2189 41.7742 20.5986L41.0671 19.8914C40.674 20.2845 40.122 20.505 39.3496 20.505V21.505ZM41.7742 20.5986C42.4097 19.963 42.6806 19.0386 42.6806 17.927H41.6806C41.6806 18.8928 41.4448 19.5137 41.0671 19.8914L41.7742 20.5986ZM42.6806 17.927V9.7H41.6806V17.927H42.6806ZM42.1806 10.2H44.6126V9.2H42.1806V10.2ZM44.1126 9.7V17.908H45.1126V9.7H44.1126ZM44.1126 17.908C44.1126 19.0468 43.8848 19.9437 43.4643 20.6297L44.3169 21.1523C44.8591 20.2677 45.1126 19.1759 45.1126 17.908H44.1126ZM43.4643 20.6297C43.0317 21.3355 42.4572 21.858 41.7346 22.208L42.1706 23.108C43.0693 22.6727 43.7868 22.0172 44.3169 21.1523L43.4643 20.6297ZM41.7376 22.2066C41.0135 22.5514 40.2013 22.728 39.2926 22.728V23.728C40.3345 23.728 41.2957 23.5246 42.1676 23.1094L41.7376 22.2066ZM55.7022 23L55.2326 23.1717L55.3527 23.5H55.7022V23ZM50.8382 9.7V9.2H50.123L50.3686 9.87173L50.8382 9.7ZM53.4412 9.7L53.9134 9.53567L53.7966 9.2H53.4412V9.7ZM57.2032 20.511L56.731 20.6753L57.202 22.029L57.6752 20.6761L57.2032 20.511ZM60.9842 9.7V9.2H60.6294L60.5123 9.53493L60.9842 9.7ZM63.5492 9.7L64.0188 9.87173L64.2645 9.2H63.5492V9.7ZM58.6852 23V23.5H59.0348L59.1548 23.1717L58.6852 23ZM56.1718 22.8283L51.3078 9.52827L50.3686 9.87173L55.2326 23.1717L56.1718 22.8283ZM50.8382 10.2H53.4412V9.2H50.8382V10.2ZM52.969 9.86432L56.731 20.6753L57.6754 20.3467L53.9134 9.53567L52.969 9.86432ZM57.6752 20.6761L61.4562 9.86506L60.5123 9.53493L56.7313 20.3459L57.6752 20.6761ZM60.9842 10.2H63.5492V9.2H60.9842V10.2ZM63.0796 9.52827L58.2156 22.8283L59.1548 23.1717L64.0188 9.87173L63.0796 9.52827ZM58.6852 22.5H55.7022V23.5H58.6852V22.5ZM69.8804 23H69.3804V23.5H69.8804V23ZM69.8804 9.7V9.2H69.3804V9.7H69.8804ZM78.5634 9.7H79.0634V9.2H78.5634V9.7ZM78.5634 11.657V12.157H79.0634V11.657H78.5634ZM72.3124 11.657V11.157H71.8124V11.657H72.3124ZM72.3124 15.305H71.8124V15.805H72.3124V15.305ZM77.9934 15.305H78.4934V14.805H77.9934V15.305ZM77.9934 17.205V17.705H78.4934V17.205H77.9934ZM72.3124 17.205V16.705H71.8124V17.205H72.3124ZM72.3124 21.043H71.8124V21.543H72.3124V21.043ZM78.5634 21.043H79.0634V20.543H78.5634V21.043ZM78.5634 23V23.5H79.0634V23H78.5634ZM70.3804 23V9.7H69.3804V23H70.3804ZM69.8804 10.2H78.5634V9.2H69.8804V10.2ZM78.0634 9.7V11.657H79.0634V9.7H78.0634ZM78.5634 11.157H72.3124V12.157H78.5634V11.157ZM71.8124 11.657V15.305H72.8124V11.657H71.8124ZM72.3124 15.805H77.9934V14.805H72.3124V15.805ZM77.4934 15.305V17.205H78.4934V15.305H77.4934ZM77.9934 16.705H72.3124V17.705H77.9934V16.705ZM71.8124 17.205V21.043H72.8124V17.205H71.8124ZM72.3124 21.543H78.5634V20.543H72.3124V21.543ZM78.0634 21.043V23H79.0634V21.043H78.0634ZM78.5634 22.5H69.8804V23.5H78.5634V22.5Z" fill="white"/>
</svg>